G75*
%MOIN*%
%OFA0B0*%
%FSLAX25Y25*%
%IPPOS*%
%LPD*%
%AMOC8*
5,1,8,0,0,1.08239X$1,22.5*
%
%ADD10C,0.00000*%
%ADD11OC8,0.05200*%
%ADD12C,0.05200*%
%ADD13C,0.05150*%
%ADD14C,0.11220*%
%ADD15C,0.07400*%
%ADD16C,0.05200*%
%ADD17C,0.05937*%
%ADD18C,0.01000*%
%ADD19C,0.03562*%
D10*
X0001600Y0001600D02*
X0001600Y0198450D01*
X0198450Y0198450D01*
X0198450Y0001600D01*
X0001600Y0001600D01*
D11*
X0016600Y0011600D03*
X0006600Y0031600D03*
X0006600Y0051600D03*
X0016600Y0051600D03*
X0046600Y0031600D03*
X0066600Y0031600D03*
X0066600Y0041600D03*
X0056600Y0011600D03*
X0119100Y0014100D03*
X0129100Y0014100D03*
X0141600Y0014100D03*
X0181600Y0014100D03*
X0146600Y0081600D03*
X0136600Y0161600D03*
X0126600Y0161600D03*
X0116600Y0172850D03*
X0111600Y0186600D03*
X0101600Y0186600D03*
X0089100Y0186600D03*
X0084100Y0194100D03*
X0079100Y0186600D03*
X0066600Y0186600D03*
X0056600Y0186600D03*
X0076600Y0172850D03*
X0036600Y0161600D03*
D12*
X0056600Y0161600D03*
X0126600Y0081600D03*
D13*
X0161521Y0170301D03*
X0166246Y0173450D03*
X0161521Y0176600D03*
X0166246Y0179750D03*
X0161521Y0182899D03*
X0146974Y0186600D03*
X0139100Y0186600D03*
X0131226Y0186600D03*
D14*
X0181600Y0190970D03*
X0181600Y0162230D03*
D15*
X0193600Y0136600D03*
X0193600Y0126600D03*
X0193600Y0116600D03*
X0193600Y0106600D03*
X0193600Y0096600D03*
X0193600Y0086600D03*
X0193600Y0076600D03*
X0193600Y0066600D03*
X0091600Y0014100D03*
X0071600Y0014100D03*
X0066600Y0066600D03*
X0066600Y0076600D03*
X0066600Y0086600D03*
X0006600Y0086600D03*
X0006600Y0076600D03*
X0006600Y0066600D03*
X0006600Y0096600D03*
X0006600Y0106600D03*
X0006600Y0116600D03*
X0006600Y0126600D03*
X0006600Y0136600D03*
X0006600Y0146600D03*
X0006600Y0156600D03*
X0006600Y0166600D03*
X0006600Y0176600D03*
X0006600Y0186600D03*
X0021600Y0186600D03*
X0041600Y0186600D03*
D16*
X0079000Y0161600D02*
X0084200Y0161600D01*
X0084200Y0151600D02*
X0079000Y0151600D01*
X0079000Y0141600D02*
X0084200Y0141600D01*
X0084200Y0131600D02*
X0079000Y0131600D01*
X0079000Y0121600D02*
X0084200Y0121600D01*
X0084200Y0111600D02*
X0079000Y0111600D01*
X0079000Y0101600D02*
X0084200Y0101600D01*
X0084200Y0091600D02*
X0079000Y0091600D01*
X0079000Y0081600D02*
X0084200Y0081600D01*
X0084200Y0071600D02*
X0079000Y0071600D01*
X0079000Y0061600D02*
X0084200Y0061600D01*
X0084200Y0051600D02*
X0079000Y0051600D01*
X0079000Y0041600D02*
X0084200Y0041600D01*
X0084200Y0031600D02*
X0079000Y0031600D01*
X0109000Y0031600D02*
X0114200Y0031600D01*
X0114200Y0041600D02*
X0109000Y0041600D01*
X0109000Y0051600D02*
X0114200Y0051600D01*
X0114200Y0061600D02*
X0109000Y0061600D01*
X0109000Y0071600D02*
X0114200Y0071600D01*
X0114200Y0081600D02*
X0109000Y0081600D01*
X0109000Y0091600D02*
X0114200Y0091600D01*
X0114200Y0101600D02*
X0109000Y0101600D01*
X0109000Y0111600D02*
X0114200Y0111600D01*
X0114200Y0121600D02*
X0109000Y0121600D01*
X0109000Y0131600D02*
X0114200Y0131600D01*
X0114200Y0141600D02*
X0109000Y0141600D01*
X0109000Y0151600D02*
X0114200Y0151600D01*
X0114200Y0161600D02*
X0109000Y0161600D01*
D17*
X0123352Y0186600D03*
X0154848Y0186600D03*
D18*
X0145475Y0182725D02*
X0156600Y0171600D01*
X0160222Y0171600D01*
X0161521Y0170301D01*
X0166246Y0173450D02*
X0166246Y0153746D01*
X0159100Y0146600D01*
X0159100Y0111600D01*
X0151600Y0101600D02*
X0151600Y0166226D01*
X0131226Y0186600D01*
X0123876Y0193950D01*
X0108950Y0193950D01*
X0101600Y0186600D01*
X0094100Y0194100D01*
X0084100Y0194100D01*
X0089100Y0186600D02*
X0081600Y0179100D01*
X0081600Y0176600D01*
X0066600Y0176600D01*
X0056600Y0186600D01*
X0056600Y0176600D01*
X0056600Y0161600D01*
X0041600Y0172850D02*
X0041600Y0186600D01*
X0006600Y0156600D02*
X0021600Y0141600D01*
X0021600Y0131600D01*
X0016600Y0141600D02*
X0011600Y0141600D01*
X0006600Y0146600D01*
X0016600Y0141600D02*
X0016600Y0121600D01*
X0006600Y0096600D02*
X0046600Y0056600D01*
X0036600Y0046600D01*
X0016600Y0011600D01*
X0006600Y0031600D02*
X0006600Y0051600D01*
X0016600Y0051600D02*
X0016600Y0076600D01*
X0036600Y0086600D02*
X0051600Y0071600D01*
X0051600Y0054100D01*
X0054100Y0051600D01*
X0066600Y0041600D02*
X0056600Y0031600D01*
X0056600Y0011600D01*
X0071600Y0014100D02*
X0071600Y0021600D01*
X0074100Y0024100D01*
X0074100Y0061600D01*
X0081600Y0061600D01*
X0091600Y0051600D02*
X0091600Y0096600D01*
X0106600Y0111600D01*
X0111600Y0111600D01*
X0106600Y0111600D02*
X0101600Y0116600D01*
X0101600Y0156600D01*
X0106600Y0161600D01*
X0111600Y0161600D01*
X0089100Y0184100D01*
X0089100Y0186600D01*
X0076600Y0172850D02*
X0076600Y0166600D01*
X0081600Y0161600D01*
X0081600Y0151600D02*
X0066600Y0136600D01*
X0066600Y0126600D02*
X0081600Y0141600D01*
X0111600Y0161600D02*
X0116600Y0166600D01*
X0116600Y0172850D01*
X0126600Y0161600D01*
X0131600Y0146600D02*
X0131600Y0111600D01*
X0111600Y0091600D01*
X0091600Y0051600D02*
X0081600Y0041600D01*
X0096600Y0036600D02*
X0119100Y0014100D01*
X0096600Y0036600D02*
X0096600Y0046600D01*
X0166600Y0021600D02*
X0166600Y0144100D01*
X0174100Y0151600D01*
X0174100Y0179100D01*
X0166895Y0179100D01*
X0166246Y0179750D01*
X0145475Y0182725D02*
X0145369Y0182725D01*
X0141494Y0186600D01*
X0139100Y0186600D01*
X0193600Y0106600D02*
X0178600Y0091600D01*
X0176600Y0091600D01*
X0176600Y0079600D02*
X0193600Y0096600D01*
X0193600Y0086600D02*
X0174100Y0067100D01*
X0174100Y0041600D01*
X0181600Y0031600D02*
X0181600Y0064600D01*
X0193600Y0076600D01*
X0176600Y0076600D02*
X0176600Y0079600D01*
D19*
X0176600Y0076600D03*
X0176600Y0091600D03*
X0159100Y0111600D03*
X0151600Y0101600D03*
X0131600Y0146600D03*
X0066600Y0136600D03*
X0066600Y0126600D03*
X0036600Y0086600D03*
X0016600Y0076600D03*
X0046600Y0056600D03*
X0054100Y0051600D03*
X0096600Y0046600D03*
X0166600Y0021600D03*
X0181600Y0031600D03*
X0174100Y0041600D03*
X0056600Y0176600D03*
X0041600Y0172850D03*
X0021600Y0131600D03*
X0016600Y0121600D03*
M02*
