G75*
%MOIN*%
%OFA0B0*%
%FSLAX25Y25*%
%IPPOS*%
%LPD*%
%AMOC8*
5,1,8,0,0,1.08239X$1,22.5*
%
%ADD10C,0.00000*%
%ADD11OC8,0.05600*%
%ADD12C,0.05600*%
%ADD13C,0.05550*%
%ADD14C,0.11620*%
%ADD15C,0.07800*%
%ADD16C,0.05600*%
%ADD17C,0.06337*%
D10*
X0001600Y0001600D02*
X0001600Y0198450D01*
X0198450Y0198450D01*
X0198450Y0001600D01*
X0001600Y0001600D01*
D11*
X0016600Y0011600D03*
X0006600Y0031600D03*
X0006600Y0051600D03*
X0016600Y0051600D03*
X0046600Y0031600D03*
X0066600Y0031600D03*
X0066600Y0041600D03*
X0056600Y0011600D03*
X0119100Y0014100D03*
X0129100Y0014100D03*
X0141600Y0014100D03*
X0181600Y0014100D03*
X0146600Y0081600D03*
X0136600Y0161600D03*
X0126600Y0161600D03*
X0116600Y0172850D03*
X0111600Y0186600D03*
X0101600Y0186600D03*
X0089100Y0186600D03*
X0084100Y0194100D03*
X0079100Y0186600D03*
X0066600Y0186600D03*
X0056600Y0186600D03*
X0076600Y0172850D03*
X0036600Y0161600D03*
D12*
X0056600Y0161600D03*
X0126600Y0081600D03*
D13*
X0161521Y0170301D03*
X0166246Y0173450D03*
X0161521Y0176600D03*
X0166246Y0179750D03*
X0161521Y0182899D03*
X0146974Y0186600D03*
X0139100Y0186600D03*
X0131226Y0186600D03*
D14*
X0181600Y0190970D03*
X0181600Y0162230D03*
D15*
X0193600Y0136600D03*
X0193600Y0126600D03*
X0193600Y0116600D03*
X0193600Y0106600D03*
X0193600Y0096600D03*
X0193600Y0086600D03*
X0193600Y0076600D03*
X0193600Y0066600D03*
X0091600Y0014100D03*
X0071600Y0014100D03*
X0066600Y0066600D03*
X0066600Y0076600D03*
X0066600Y0086600D03*
X0006600Y0086600D03*
X0006600Y0076600D03*
X0006600Y0066600D03*
X0006600Y0096600D03*
X0006600Y0106600D03*
X0006600Y0116600D03*
X0006600Y0126600D03*
X0006600Y0136600D03*
X0006600Y0146600D03*
X0006600Y0156600D03*
X0006600Y0166600D03*
X0006600Y0176600D03*
X0006600Y0186600D03*
X0021600Y0186600D03*
X0041600Y0186600D03*
D16*
X0079000Y0161600D02*
X0084200Y0161600D01*
X0084200Y0151600D02*
X0079000Y0151600D01*
X0079000Y0141600D02*
X0084200Y0141600D01*
X0084200Y0131600D02*
X0079000Y0131600D01*
X0079000Y0121600D02*
X0084200Y0121600D01*
X0084200Y0111600D02*
X0079000Y0111600D01*
X0079000Y0101600D02*
X0084200Y0101600D01*
X0084200Y0091600D02*
X0079000Y0091600D01*
X0079000Y0081600D02*
X0084200Y0081600D01*
X0084200Y0071600D02*
X0079000Y0071600D01*
X0079000Y0061600D02*
X0084200Y0061600D01*
X0084200Y0051600D02*
X0079000Y0051600D01*
X0079000Y0041600D02*
X0084200Y0041600D01*
X0084200Y0031600D02*
X0079000Y0031600D01*
X0109000Y0031600D02*
X0114200Y0031600D01*
X0114200Y0041600D02*
X0109000Y0041600D01*
X0109000Y0051600D02*
X0114200Y0051600D01*
X0114200Y0061600D02*
X0109000Y0061600D01*
X0109000Y0071600D02*
X0114200Y0071600D01*
X0114200Y0081600D02*
X0109000Y0081600D01*
X0109000Y0091600D02*
X0114200Y0091600D01*
X0114200Y0101600D02*
X0109000Y0101600D01*
X0109000Y0111600D02*
X0114200Y0111600D01*
X0114200Y0121600D02*
X0109000Y0121600D01*
X0109000Y0131600D02*
X0114200Y0131600D01*
X0114200Y0141600D02*
X0109000Y0141600D01*
X0109000Y0151600D02*
X0114200Y0151600D01*
X0114200Y0161600D02*
X0109000Y0161600D01*
D17*
X0123352Y0186600D03*
X0154848Y0186600D03*
M02*
