G75*
%MOIN*%
%OFA0B0*%
%FSLAX25Y25*%
%IPPOS*%
%LPD*%
%AMOC8*
5,1,8,0,0,1.08239X$1,22.5*
%
%ADD10C,0.00000*%
%ADD11C,0.00400*%
%ADD12C,0.00500*%
D10*
X0001600Y0001600D02*
X0001600Y0198450D01*
X0198450Y0198450D01*
X0198450Y0001600D01*
X0001600Y0001600D01*
X0025419Y0106600D02*
X0025421Y0106669D01*
X0025427Y0106737D01*
X0025437Y0106805D01*
X0025451Y0106872D01*
X0025469Y0106939D01*
X0025490Y0107004D01*
X0025516Y0107068D01*
X0025545Y0107130D01*
X0025577Y0107190D01*
X0025613Y0107249D01*
X0025653Y0107305D01*
X0025695Y0107359D01*
X0025741Y0107410D01*
X0025790Y0107459D01*
X0025841Y0107505D01*
X0025895Y0107547D01*
X0025951Y0107587D01*
X0026009Y0107623D01*
X0026070Y0107655D01*
X0026132Y0107684D01*
X0026196Y0107710D01*
X0026261Y0107731D01*
X0026328Y0107749D01*
X0026395Y0107763D01*
X0026463Y0107773D01*
X0026531Y0107779D01*
X0026600Y0107781D01*
X0026669Y0107779D01*
X0026737Y0107773D01*
X0026805Y0107763D01*
X0026872Y0107749D01*
X0026939Y0107731D01*
X0027004Y0107710D01*
X0027068Y0107684D01*
X0027130Y0107655D01*
X0027190Y0107623D01*
X0027249Y0107587D01*
X0027305Y0107547D01*
X0027359Y0107505D01*
X0027410Y0107459D01*
X0027459Y0107410D01*
X0027505Y0107359D01*
X0027547Y0107305D01*
X0027587Y0107249D01*
X0027623Y0107190D01*
X0027655Y0107130D01*
X0027684Y0107068D01*
X0027710Y0107004D01*
X0027731Y0106939D01*
X0027749Y0106872D01*
X0027763Y0106805D01*
X0027773Y0106737D01*
X0027779Y0106669D01*
X0027781Y0106600D01*
X0027779Y0106531D01*
X0027773Y0106463D01*
X0027763Y0106395D01*
X0027749Y0106328D01*
X0027731Y0106261D01*
X0027710Y0106196D01*
X0027684Y0106132D01*
X0027655Y0106070D01*
X0027623Y0106009D01*
X0027587Y0105951D01*
X0027547Y0105895D01*
X0027505Y0105841D01*
X0027459Y0105790D01*
X0027410Y0105741D01*
X0027359Y0105695D01*
X0027305Y0105653D01*
X0027249Y0105613D01*
X0027191Y0105577D01*
X0027130Y0105545D01*
X0027068Y0105516D01*
X0027004Y0105490D01*
X0026939Y0105469D01*
X0026872Y0105451D01*
X0026805Y0105437D01*
X0026737Y0105427D01*
X0026669Y0105421D01*
X0026600Y0105419D01*
X0026531Y0105421D01*
X0026463Y0105427D01*
X0026395Y0105437D01*
X0026328Y0105451D01*
X0026261Y0105469D01*
X0026196Y0105490D01*
X0026132Y0105516D01*
X0026070Y0105545D01*
X0026009Y0105577D01*
X0025951Y0105613D01*
X0025895Y0105653D01*
X0025841Y0105695D01*
X0025790Y0105741D01*
X0025741Y0105790D01*
X0025695Y0105841D01*
X0025653Y0105895D01*
X0025613Y0105951D01*
X0025577Y0106009D01*
X0025545Y0106070D01*
X0025516Y0106132D01*
X0025490Y0106196D01*
X0025469Y0106261D01*
X0025451Y0106328D01*
X0025437Y0106395D01*
X0025427Y0106463D01*
X0025421Y0106531D01*
X0025419Y0106600D01*
D11*
X0025349Y0098902D02*
X0024999Y0098551D01*
X0024999Y0098201D01*
X0025349Y0097851D01*
X0026400Y0097851D01*
X0026400Y0096800D02*
X0026400Y0098902D01*
X0025349Y0098902D01*
X0025349Y0097851D02*
X0024999Y0097501D01*
X0024999Y0097150D01*
X0025349Y0096800D01*
X0026400Y0096800D01*
X0024098Y0097851D02*
X0022697Y0097851D01*
X0023047Y0096800D02*
X0023047Y0098902D01*
X0024098Y0097851D01*
X0021796Y0096800D02*
X0020395Y0098902D01*
X0019494Y0098902D02*
X0019494Y0097150D01*
X0019144Y0096800D01*
X0018443Y0096800D01*
X0018093Y0097150D01*
X0018093Y0098902D01*
X0017192Y0098551D02*
X0017192Y0098201D01*
X0016842Y0097851D01*
X0016141Y0097851D01*
X0015791Y0097501D01*
X0015791Y0097150D01*
X0016141Y0096800D01*
X0016842Y0096800D01*
X0017192Y0097150D01*
X0017192Y0098551D02*
X0016842Y0098902D01*
X0016141Y0098902D01*
X0015791Y0098551D01*
X0014890Y0098902D02*
X0014890Y0096800D01*
X0013489Y0096800D01*
X0012588Y0096800D02*
X0012588Y0098902D01*
X0011537Y0098902D01*
X0011187Y0098551D01*
X0011187Y0097851D01*
X0011537Y0097501D01*
X0012588Y0097501D01*
X0011888Y0097501D02*
X0011187Y0096800D01*
X0013489Y0098902D02*
X0014890Y0098902D01*
X0014890Y0097851D02*
X0014190Y0097851D01*
X0014099Y0106800D02*
X0013749Y0107150D01*
X0013749Y0107501D01*
X0014099Y0107851D01*
X0015150Y0107851D01*
X0015150Y0106800D02*
X0015150Y0108902D01*
X0014099Y0108902D01*
X0013749Y0108551D01*
X0013749Y0108201D01*
X0014099Y0107851D01*
X0014099Y0106800D02*
X0015150Y0106800D01*
X0012848Y0107150D02*
X0012498Y0106800D01*
X0011797Y0106800D01*
X0011447Y0107150D01*
X0011447Y0107501D01*
X0011797Y0107851D01*
X0012147Y0107851D01*
X0011797Y0107851D02*
X0011447Y0108201D01*
X0011447Y0108551D01*
X0011797Y0108902D01*
X0012498Y0108902D01*
X0012848Y0108551D01*
X0012848Y0116800D02*
X0011447Y0118201D01*
X0011447Y0118551D01*
X0011797Y0118902D01*
X0012498Y0118902D01*
X0012848Y0118551D01*
X0013749Y0118551D02*
X0013749Y0118201D01*
X0014099Y0117851D01*
X0015150Y0117851D01*
X0015150Y0116800D02*
X0015150Y0118902D01*
X0014099Y0118902D01*
X0013749Y0118551D01*
X0014099Y0117851D02*
X0013749Y0117501D01*
X0013749Y0117150D01*
X0014099Y0116800D01*
X0015150Y0116800D01*
X0012848Y0116800D02*
X0011447Y0116800D01*
X0011447Y0126800D02*
X0012848Y0126800D01*
X0012147Y0126800D02*
X0012147Y0128902D01*
X0012848Y0128201D01*
X0013749Y0128201D02*
X0013749Y0126800D01*
X0013749Y0127851D02*
X0015150Y0127851D01*
X0015150Y0128201D02*
X0014449Y0128902D01*
X0013749Y0128201D01*
X0015150Y0128201D02*
X0015150Y0126800D01*
X0015150Y0136800D02*
X0015150Y0138201D01*
X0014449Y0138902D01*
X0013749Y0138201D01*
X0013749Y0136800D01*
X0012848Y0137150D02*
X0011447Y0138551D01*
X0011447Y0137150D01*
X0011797Y0136800D01*
X0012498Y0136800D01*
X0012848Y0137150D01*
X0012848Y0138551D01*
X0012498Y0138902D01*
X0011797Y0138902D01*
X0011447Y0138551D01*
X0013749Y0137851D02*
X0015150Y0137851D01*
X0020494Y0077652D02*
X0020494Y0076251D01*
X0021195Y0075550D01*
X0021895Y0076251D01*
X0021895Y0077652D01*
X0022796Y0077301D02*
X0022796Y0076951D01*
X0023146Y0076601D01*
X0022796Y0076251D01*
X0022796Y0075900D01*
X0023146Y0075550D01*
X0023847Y0075550D01*
X0024197Y0075900D01*
X0024998Y0075900D02*
X0024998Y0075550D01*
X0025348Y0075550D01*
X0025348Y0075900D01*
X0024998Y0075900D01*
X0026249Y0075900D02*
X0026599Y0075550D01*
X0027300Y0075550D01*
X0027650Y0075900D01*
X0026949Y0076601D02*
X0026599Y0076601D01*
X0026249Y0076251D01*
X0026249Y0075900D01*
X0026599Y0076601D02*
X0026249Y0076951D01*
X0026249Y0077301D01*
X0026599Y0077652D01*
X0027300Y0077652D01*
X0027650Y0077301D01*
X0024197Y0077301D02*
X0023847Y0077652D01*
X0023146Y0077652D01*
X0022796Y0077301D01*
X0023146Y0076601D02*
X0023496Y0076601D01*
X0017300Y0068902D02*
X0017650Y0068551D01*
X0017650Y0067150D01*
X0017300Y0066800D01*
X0016599Y0066800D01*
X0016249Y0067150D01*
X0016249Y0067851D01*
X0016949Y0067851D01*
X0016249Y0068551D02*
X0016599Y0068902D01*
X0017300Y0068902D01*
X0015348Y0068902D02*
X0015348Y0066800D01*
X0013947Y0066800D02*
X0013947Y0068902D01*
X0013046Y0068902D02*
X0011995Y0068902D01*
X0011645Y0068551D01*
X0011645Y0067150D01*
X0011995Y0066800D01*
X0013046Y0066800D01*
X0013046Y0068902D01*
X0013947Y0066800D02*
X0015348Y0068902D01*
X0182697Y0076251D02*
X0182697Y0077652D01*
X0184098Y0077652D02*
X0184098Y0076251D01*
X0183397Y0075550D01*
X0182697Y0076251D01*
X0184999Y0076601D02*
X0184999Y0075900D01*
X0185349Y0075550D01*
X0186050Y0075550D01*
X0186400Y0075900D01*
X0186400Y0076601D02*
X0185699Y0076951D01*
X0185349Y0076951D01*
X0184999Y0076601D01*
X0184999Y0077652D02*
X0186400Y0077652D01*
X0186400Y0076601D01*
X0186400Y0085550D02*
X0185349Y0085550D01*
X0184999Y0085900D01*
X0184999Y0086251D01*
X0185349Y0086601D01*
X0186400Y0086601D01*
X0186400Y0087652D02*
X0185349Y0087652D01*
X0184999Y0087301D01*
X0184999Y0086951D01*
X0185349Y0086601D01*
X0184098Y0085900D02*
X0184098Y0085550D01*
X0184098Y0085900D02*
X0182697Y0087301D01*
X0182697Y0087652D01*
X0184098Y0087652D01*
X0186400Y0087652D02*
X0186400Y0085550D01*
X0186400Y0095550D02*
X0185349Y0095550D01*
X0184999Y0095900D01*
X0184999Y0096251D01*
X0185349Y0096601D01*
X0186400Y0096601D01*
X0186400Y0097652D02*
X0185349Y0097652D01*
X0184999Y0097301D01*
X0184999Y0096951D01*
X0185349Y0096601D01*
X0184098Y0096951D02*
X0184098Y0097301D01*
X0183748Y0097652D01*
X0183047Y0097652D01*
X0182697Y0097301D01*
X0182697Y0096951D01*
X0183047Y0096601D01*
X0183748Y0096601D01*
X0184098Y0096951D01*
X0183748Y0096601D02*
X0184098Y0096251D01*
X0184098Y0095900D01*
X0183748Y0095550D01*
X0183047Y0095550D01*
X0182697Y0095900D01*
X0182697Y0096251D01*
X0183047Y0096601D01*
X0186400Y0095550D02*
X0186400Y0097652D01*
X0186400Y0105550D02*
X0185349Y0105550D01*
X0184999Y0105900D01*
X0184999Y0106251D01*
X0185349Y0106601D01*
X0186400Y0106601D01*
X0186400Y0107652D02*
X0185349Y0107652D01*
X0184999Y0107301D01*
X0184999Y0106951D01*
X0185349Y0106601D01*
X0184098Y0106951D02*
X0183748Y0106601D01*
X0182697Y0106601D01*
X0182697Y0107301D02*
X0183047Y0107652D01*
X0183748Y0107652D01*
X0184098Y0107301D01*
X0184098Y0106951D01*
X0184098Y0105900D02*
X0183748Y0105550D01*
X0183047Y0105550D01*
X0182697Y0105900D01*
X0182697Y0107301D01*
X0186400Y0107652D02*
X0186400Y0105550D01*
X0186598Y0115550D02*
X0185197Y0115550D01*
X0185897Y0115550D02*
X0185897Y0117652D01*
X0186598Y0116951D01*
X0187499Y0116951D02*
X0187849Y0116601D01*
X0188900Y0116601D01*
X0188900Y0117652D02*
X0187849Y0117652D01*
X0187499Y0117301D01*
X0187499Y0116951D01*
X0187849Y0116601D02*
X0187499Y0116251D01*
X0187499Y0115900D01*
X0187849Y0115550D01*
X0188900Y0115550D01*
X0188900Y0117652D01*
X0184296Y0117301D02*
X0183946Y0117652D01*
X0183245Y0117652D01*
X0182895Y0117301D01*
X0182895Y0116951D01*
X0183245Y0116601D01*
X0182895Y0116251D01*
X0182895Y0115900D01*
X0183245Y0115550D01*
X0183946Y0115550D01*
X0184296Y0115900D01*
X0183595Y0116601D02*
X0183245Y0116601D01*
X0183245Y0125550D02*
X0183245Y0127652D01*
X0184296Y0126601D01*
X0182895Y0126601D01*
X0185197Y0125550D02*
X0186598Y0125550D01*
X0185897Y0125550D02*
X0185897Y0127652D01*
X0186598Y0126951D01*
X0187499Y0126951D02*
X0187849Y0126601D01*
X0188900Y0126601D01*
X0188900Y0127652D02*
X0187849Y0127652D01*
X0187499Y0127301D01*
X0187499Y0126951D01*
X0187849Y0126601D02*
X0187499Y0126251D01*
X0187499Y0125900D01*
X0187849Y0125550D01*
X0188900Y0125550D01*
X0188900Y0127652D01*
X0188900Y0135550D02*
X0187849Y0135550D01*
X0187499Y0135900D01*
X0187499Y0136251D01*
X0187849Y0136601D01*
X0188900Y0136601D01*
X0188900Y0135550D02*
X0188900Y0137652D01*
X0187849Y0137652D01*
X0187499Y0137301D01*
X0187499Y0136951D01*
X0187849Y0136601D01*
X0186598Y0136951D02*
X0185897Y0137652D01*
X0185897Y0135550D01*
X0185197Y0135550D02*
X0186598Y0135550D01*
X0184296Y0135900D02*
X0183946Y0135550D01*
X0183245Y0135550D01*
X0182895Y0135900D01*
X0182895Y0136601D01*
X0183245Y0136951D01*
X0183595Y0136951D01*
X0184296Y0136601D01*
X0184296Y0137652D01*
X0182895Y0137652D01*
X0183245Y0067652D02*
X0184296Y0067652D01*
X0184296Y0065550D01*
X0183245Y0065550D01*
X0182895Y0065900D01*
X0182895Y0067301D01*
X0183245Y0067652D01*
X0185197Y0067652D02*
X0185197Y0065550D01*
X0186598Y0067652D01*
X0186598Y0065550D01*
X0187499Y0065900D02*
X0187499Y0066601D01*
X0188199Y0066601D01*
X0187499Y0067301D02*
X0187849Y0067652D01*
X0188550Y0067652D01*
X0188900Y0067301D01*
X0188900Y0065900D01*
X0188550Y0065550D01*
X0187849Y0065550D01*
X0187499Y0065900D01*
D12*
X0196364Y0161246D02*
X0160931Y0161246D01*
X0160931Y0191954D01*
X0196364Y0191954D01*
X0196364Y0161246D01*
X0194395Y0164789D02*
X0194395Y0168726D01*
X0178647Y0170694D01*
X0174710Y0173647D02*
X0174710Y0179553D01*
X0194395Y0181521D01*
X0194395Y0184474D02*
X0176679Y0182506D01*
X0176679Y0190380D02*
X0194395Y0188411D01*
X0194395Y0184474D01*
X0194395Y0171679D02*
X0174710Y0173647D01*
X0178647Y0162820D02*
X0194395Y0164789D01*
M02*
