%
M48
M72
T01C0.02362
T02C0.03150
T03C0.03200
T04C0.03937
T05C0.04000
T06C0.07480
%
T01
X41600Y172850
X56600Y176600
X66600Y136600
X66600Y126600
X26600Y106600
X16600Y121600
X21600Y131600
X36600Y86600
X16600Y76600
X46600Y56600
X54100Y51600
X96600Y46600
X151600Y101600
X159100Y111600
X176600Y91600
X176600Y76600
X174100Y41600
X181600Y31600
X166600Y21600
X131600Y146600
T02
X131226Y186600
X139100Y186600
X146974Y186600
X161521Y182899
X166246Y179750
X161521Y176600
X166246Y173450
X161521Y170301
T03
X36600Y161600
X56600Y161600
X76600Y172850
X81600Y161600
X81600Y151600
X81600Y141600
X81600Y131600
X81600Y121600
X81600Y111600
X81600Y101600
X81600Y91600
X81600Y81600
X81600Y71600
X81600Y61600
X81600Y51600
X81600Y41600
X81600Y31600
X66600Y31600
X66600Y41600
X46600Y31600
X56600Y11600
X16600Y11600
X6600Y31600
X6600Y51600
X16600Y51600
X56600Y186600
X66600Y186600
X79100Y186600
X84100Y194100
X89100Y186600
X101600Y186600
X111600Y186600
X116600Y172850
X111600Y161600
X111600Y151600
X111600Y141600
X111600Y131600
X111600Y121600
X111600Y111600
X111600Y101600
X111600Y91600
X111600Y81600
X111600Y71600
X111600Y61600
X111600Y51600
X111600Y41600
X111600Y31600
X119100Y14100
X129100Y14100
X141600Y14100
X181600Y14100
X146600Y81600
X126600Y81600
X126600Y161600
X136600Y161600
T04
X123352Y186600
X154848Y186600
T05
X6600Y186600
X6600Y176600
X6600Y166600
X6600Y156600
X6600Y146600
X6600Y136600
X6600Y126600
X6600Y116600
X6600Y106600
X6600Y96600
X6600Y86600
X6600Y76600
X6600Y66600
X66600Y86600
X66600Y76600
X66600Y66600
X71600Y14100
X91600Y14100
X193600Y66600
X193600Y76600
X193600Y86600
X193600Y96600
X193600Y106600
X193600Y116600
X193600Y126600
X193600Y136600
X41600Y186600
X21600Y186600
T06
X181600Y162230
X181600Y190970
M30
